<?xml version="1.0"?>
<svg xmlns="http://www.w3.org/2000/svg" height="512" viewBox="0 -53 384 384" width="512"><g><path d="m368 154.667969h-352c-8.832031 0-16-7.167969-16-16s7.167969-16 16-16h352c8.832031 0 16 7.167969 16 16s-7.167969 16-16 16zm0 0" data-original="#000000" class="active-path" style="fill:#FFFFFF" data-old_color="#000000"/><path d="m368 32h-352c-8.832031 0-16-7.167969-16-16s7.167969-16 16-16h352c8.832031 0 16 7.167969 16 16s-7.167969 16-16 16zm0 0" data-original="#000000" class="active-path" style="fill:#FFFFFF" data-old_color="#000000"/><path d="m368 277.332031h-352c-8.832031 0-16-7.167969-16-16s7.167969-16 16-16h352c8.832031 0 16 7.167969 16 16s-7.167969 16-16 16zm0 0" data-original="#000000" class="active-path" style="fill:#FFFFFF" data-old_color="#000000"/></g> </svg>
